<?xml version="1.0" encoding="UTF-8"?>
<!DOCTYPE svg PUBLIC "-//W3C//DTD SVG 1.1//EN" "http://www.w3.org/Graphics/SVG/1.1/DTD/svg11.dtd">
<!-- Creator: CorelDRAW 2020 (64-Bit) -->
<svg xmlns="http://www.w3.org/2000/svg" xml:space="preserve" width="95mm" height="105mm" version="1.1" style="shape-rendering:geometricPrecision; text-rendering:geometricPrecision; image-rendering:optimizeQuality; fill-rule:evenodd; clip-rule:evenodd"
viewBox="0 0 9500 10500"
 xmlns:xlink="http://www.w3.org/1999/xlink"
 xmlns:xodm="http://www.corel.com/coreldraw/odm/2003">
 <defs>
  <style type="text/css">
   <![CDATA[
    .fil1 {fill:black}
    .fil0 {fill:black;fill-rule:nonzero}
   ]]>
  </style>
 </defs>
 <g id="Слой_x0020_1">
  <metadata id="CorelCorpID_0Corel-Layer"/>
  <g id="_2171029695520">
   <path class="fil0" d="M-8.27 10507.8l635.68 0 0 -568.99 633.52 0 318.39 -332.77 0 -1098.24 -1587.59 0 0 2000zm951.9 -1499.15l0 432.71 -316.22 0 0 -432.71 316.22 0zm954.61 1499.15l635.68 0 0 -688.24 101.26 0 214.96 688.24 635.69 0 -240.96 -768.31 240.96 -252.7 0 -978.99 -1587.59 0 0 2000zm951.9 -1499.15l0 313.46 -316.22 0 0 -313.46 316.22 0zm955.16 0l158.65 0 0 1001.71 -158.65 0 0 497.44 952.99 0 0 -497.44 -158.66 0 0 -1001.71 158.66 0 0 -500.85 -952.99 0 0 500.85zm1271.37 1499.15l633.51 0 0 -666.1 321.64 666.1 316.76 0 316.76 -333.33 0 -1666.67 -633.52 0 0 666.1 -321.64 -666.1 -633.51 0 0 2000zm1827.46 -1502.55l475.95 0 0 1502.55 635.69 0 0 -1502.55 158.65 0 317.29 -331.06 0 -166.39 -1587.58 0 0 497.45z"/>
   <path class="fil1" d="M9491.73 8.27l-1000 0 -4000 7999.52 4000 0 0 -999.94 -2500 0 3500 -6999.58zm-6500 7999.52l1000 0 4000 -7999.52 -3500 0 500 999.94 1500 0 -3500 6999.58zm-498.06 -2999.82l1498.06 0 -500 999.94 -1498.06 0 -1001.94 1999.88 -1000 0 3995.3 -7999.99 1250.97 2494.36 -500 999.94 -742.38 -1501.48 -1501.95 3007.35z"/>
  </g>
 </g>
</svg>
